<?xml version="1.0" encoding="utf-8"?>
<!-- Generator: Adobe Illustrator 17.0.0, SVG Export Plug-In . SVG Version: 6.00 Build 0)  -->
<!DOCTYPE svg PUBLIC "-//W3C//DTD SVG 1.1//EN" "http://www.w3.org/Graphics/SVG/1.1/DTD/svg11.dtd">
<svg version="1.1" id="Calque_1" xmlns="http://www.w3.org/2000/svg" xmlns:xlink="http://www.w3.org/1999/xlink" x="0px" y="0px"
	 width="595.28px" height="344px" viewBox="0 0 595.28 344" enable-background="new 0 0 595.28 344" xml:space="preserve">
<path id="cloud_5_" fill="#009FE3" d="M418.29,104.134c-4.655,0-10.4,1.88-15.473,3.529c-1.027,0.337-2.019,0.662-2.966,0.964
	c-12.368-32.176-39.698-52.803-70.331-52.803c-40.725,0-74.555,31.039-78.351,71.224c-1.706-0.151-3.273-0.232-4.794-0.232
	c-33.041,0-59.919,26.883-59.919,59.919s26.877,59.919,59.919,59.919h160.736h11.178h2.449v-0.122
	c38.16-1.312,68.816-32.675,68.816-71.137C489.555,136.102,457.587,104.134,418.29,104.134z"/>
<g>
	<g>
		<path fill="#009FE3" d="M105.504,145.072h18.291v90.69h-18.291V145.072z"/>
		<path fill="#009FE3" d="M190.479,160.06h-19.815v75.702h-18.291V160.06h-19.814v-14.988h57.92V160.06z"/>
		<path fill="#FFFFFF" d="M197.401,171.428c0.635-5.799,2.032-10.774,4.191-14.924c2.159-4.148,5.271-7.387,9.336-9.717
			c4.064-2.328,9.526-3.493,16.385-3.493c6.859,0,12.32,1.165,16.385,3.493c4.065,2.33,7.177,5.569,9.336,9.717
			c2.159,4.15,3.557,9.125,4.192,14.924c0.635,5.801,0.952,12.13,0.952,18.99c0,6.943-0.317,13.295-0.952,19.052
			c-0.635,5.76-2.033,10.714-4.192,14.861c-2.159,4.15-5.271,7.325-9.336,9.526c-4.064,2.201-9.526,3.303-16.385,3.303
			c-6.859,0-12.321-1.102-16.385-3.303c-4.065-2.201-7.177-5.376-9.336-9.526c-2.159-4.147-3.557-9.102-4.191-14.861
			c-0.635-5.757-0.953-12.108-0.953-19.052C196.448,183.558,196.766,177.229,197.401,171.428z M215.183,205.977
			c0.296,4.276,0.889,7.748,1.778,10.415s2.159,4.616,3.811,5.843c1.651,1.229,3.83,1.842,6.542,1.842
			c2.709,0,4.89-0.613,6.541-1.842c1.651-1.227,2.921-3.176,3.811-5.843s1.48-6.139,1.778-10.415
			c0.296-4.275,0.445-9.463,0.445-15.56c0-6.098-0.149-11.262-0.445-15.496c-0.298-4.234-0.889-7.705-1.778-10.416
			c-0.889-2.709-2.159-4.678-3.811-5.906c-1.651-1.227-3.832-1.842-6.541-1.842c-2.711,0-4.891,0.615-6.542,1.842
			c-1.651,1.229-2.921,3.197-3.811,5.906c-0.889,2.711-1.482,6.182-1.778,10.416c-0.298,4.234-0.444,9.398-0.444,15.496
			C214.739,196.514,214.885,201.702,215.183,205.977z"/>
		<path fill="#FFFFFF" d="M300.983,145.072c4.656,0,8.573,0.784,11.749,2.35c3.176,1.568,5.735,3.62,7.685,6.16
			c1.947,2.541,3.344,5.442,4.191,8.701c0.846,3.261,1.271,6.585,1.271,9.971c0,4.658-0.699,8.723-2.096,12.193
			c-1.397,3.474-3.347,6.31-5.843,8.511c-2.499,2.203-5.525,3.854-9.082,4.953c-3.557,1.102-7.494,1.651-11.812,1.651h-9.78v36.2
			h-18.291v-90.69H300.983z M295.395,186.098c3.64,0,6.583-1.1,8.828-3.302c2.242-2.201,3.365-5.631,3.365-10.288
			c0-4.573-0.975-8.044-2.921-10.416c-1.949-2.37-5.208-3.557-9.781-3.557h-7.621v27.562H295.395z"/>
		<path fill="#FFFFFF" d="M349.631,210.105c0,2.117,0.169,4.045,0.508,5.779c0.338,1.736,0.973,3.197,1.905,4.382
			c0.931,1.187,2.18,2.117,3.747,2.794c1.566,0.679,3.535,1.017,5.906,1.017c2.795,0,5.313-0.909,7.558-2.73
			c2.243-1.82,3.366-4.637,3.366-8.447c0-2.032-0.276-3.788-0.826-5.271c-0.552-1.48-1.46-2.813-2.73-4.001
			c-1.271-1.185-2.943-2.264-5.018-3.238c-2.075-0.973-4.636-1.969-7.685-2.985c-4.064-1.354-7.579-2.836-10.542-4.445
			c-2.965-1.607-5.442-3.493-7.431-5.652c-1.99-2.159-3.451-4.656-4.382-7.494c-0.933-2.836-1.397-6.116-1.397-9.844
			c0-8.975,2.497-15.665,7.494-20.069c4.995-4.402,11.854-6.605,20.577-6.605c4.064,0,7.812,0.445,11.24,1.334
			c3.43,0.889,6.393,2.33,8.892,4.318c2.497,1.991,4.445,4.531,5.843,7.621c1.397,3.092,2.096,6.795,2.096,11.114v2.54h-17.528
			c0-4.318-0.762-7.641-2.286-9.971c-1.524-2.328-4.064-3.493-7.621-3.493c-2.032,0-3.728,0.298-5.081,0.889
			c-1.355,0.593-2.435,1.377-3.238,2.35c-0.806,0.974-1.355,2.096-1.651,3.366c-0.298,1.27-0.444,2.584-0.444,3.938
			c0,2.794,0.591,5.144,1.777,7.049c1.186,1.905,3.726,3.664,7.621,5.271l14.1,6.097c3.471,1.524,6.307,3.112,8.51,4.764
			c2.201,1.65,3.957,3.429,5.271,5.334c1.312,1.905,2.223,4.001,2.73,6.288c0.509,2.286,0.763,4.826,0.763,7.621
			c0,9.569-2.774,16.533-8.32,20.894c-5.547,4.362-13.273,6.542-23.181,6.542c-10.332,0-17.719-2.243-22.164-6.732
			c-4.445-4.487-6.669-10.923-6.669-19.307v-3.684h18.291V210.105z"/>
	</g>
</g>
<g>
	<g>
		<path d="M104.547,275.201c0.051,0.614,0.188,1.136,0.412,1.563c0.224,0.429,0.511,0.776,0.863,1.045
			c0.352,0.269,0.757,0.464,1.218,0.585c0.46,0.122,0.953,0.183,1.477,0.183c0.614,0,1.144-0.077,1.592-0.23
			c0.447-0.153,0.812-0.36,1.093-0.623c0.281-0.262,0.489-0.565,0.624-0.911c0.134-0.345,0.201-0.71,0.201-1.093
			c0-0.537-0.122-0.972-0.364-1.305c-0.243-0.332-0.56-0.604-0.95-0.815s-0.837-0.38-1.342-0.508
			c-0.505-0.128-1.023-0.252-1.554-0.374c-0.531-0.121-1.049-0.266-1.554-0.432c-0.505-0.166-0.953-0.39-1.342-0.671
			c-0.391-0.281-0.707-0.643-0.95-1.084c-0.243-0.441-0.364-1-0.364-1.679c0-0.473,0.099-0.933,0.297-1.381
			c0.198-0.447,0.492-0.844,0.882-1.188c0.39-0.346,0.879-0.62,1.467-0.825c0.588-0.204,1.266-0.307,2.033-0.307
			c0.78,0,1.461,0.108,2.043,0.326c0.582,0.218,1.064,0.515,1.448,0.892c0.384,0.377,0.671,0.815,0.863,1.313
			c0.192,0.499,0.288,1.03,0.288,1.593h-1.247c0-0.524-0.093-0.979-0.278-1.362s-0.438-0.696-0.757-0.939
			c-0.32-0.243-0.684-0.422-1.093-0.537c-0.41-0.115-0.832-0.173-1.266-0.173c-0.665,0-1.225,0.093-1.678,0.278
			c-0.454,0.186-0.815,0.425-1.083,0.719c-0.269,0.295-0.454,0.621-0.556,0.979c-0.103,0.358-0.122,0.716-0.058,1.074
			c0.077,0.447,0.255,0.806,0.537,1.074c0.281,0.269,0.626,0.488,1.036,0.661s0.86,0.313,1.352,0.422
			c0.492,0.109,0.994,0.225,1.506,0.346c0.511,0.121,1.007,0.266,1.486,0.432s0.904,0.39,1.275,0.671
			c0.371,0.281,0.668,0.643,0.892,1.084c0.223,0.441,0.335,0.994,0.335,1.659c0,1.278-0.441,2.27-1.323,2.973
			s-2.123,1.055-3.721,1.055c-0.716,0-1.381-0.093-1.995-0.278c-0.614-0.185-1.145-0.466-1.592-0.844
			c-0.448-0.377-0.796-0.844-1.045-1.4c-0.25-0.556-0.374-1.211-0.374-1.966H104.547z"/>
		<path d="M115.191,272.439c0-1.01,0.137-1.956,0.412-2.839c0.275-0.882,0.681-1.652,1.218-2.311s1.202-1.18,1.995-1.563
			c0.792-0.384,1.707-0.575,2.743-0.575c1.074,0,2.017,0.188,2.829,0.565c0.812,0.378,1.489,0.896,2.033,1.554
			c0.543,0.659,0.952,1.433,1.228,2.321c0.274,0.889,0.412,1.838,0.412,2.848c0,0.997-0.138,1.935-0.412,2.81
			c-0.275,0.876-0.681,1.644-1.218,2.302c-0.537,0.659-1.208,1.18-2.014,1.563s-1.739,0.575-2.8,0.575
			c-1.062,0-1.995-0.191-2.8-0.575s-1.477-0.904-2.014-1.563c-0.537-0.658-0.939-1.426-1.208-2.302
			C115.326,274.374,115.191,273.436,115.191,272.439z M121.636,278.577c0.895,0,1.666-0.169,2.311-0.508s1.176-0.79,1.592-1.353
			c0.415-0.562,0.722-1.215,0.92-1.956c0.198-0.742,0.297-1.516,0.297-2.321c0-0.959-0.118-1.818-0.355-2.579
			s-0.579-1.41-1.026-1.947c-0.448-0.537-0.991-0.946-1.63-1.228c-0.64-0.281-1.355-0.422-2.148-0.422
			c-0.882,0-1.646,0.173-2.292,0.518c-0.646,0.346-1.177,0.803-1.592,1.372c-0.416,0.568-0.723,1.224-0.92,1.966
			c-0.199,0.741-0.297,1.515-0.297,2.32c0,0.818,0.099,1.599,0.297,2.34c0.198,0.742,0.505,1.395,0.92,1.957s0.946,1.01,1.592,1.342
			C119.951,278.411,120.728,278.577,121.636,278.577z"/>
		<path d="M130.65,279.325v-13.81h1.304v12.697h7.403v1.112H130.65z"/>
		<path d="M141.333,265.515h1.304v8.229c0,1.713,0.319,2.947,0.959,3.701c0.639,0.755,1.668,1.132,3.088,1.132
			c0.742,0,1.372-0.099,1.889-0.297c0.518-0.198,0.937-0.499,1.256-0.901c0.32-0.403,0.55-0.905,0.69-1.506
			c0.141-0.602,0.211-1.311,0.211-2.129v-8.229h1.304v8.611c0,1.804-0.444,3.182-1.333,4.134c-0.889,0.953-2.229,1.429-4.019,1.429
			c-1.803,0-3.146-0.485-4.028-1.457s-1.323-2.341-1.323-4.105V265.515z"/>
		<path d="M153.915,265.515h10.05v1.112h-4.373v12.697h-1.305v-12.697h-4.373V265.515z"/>
		<path d="M166.286,279.325v-13.81h1.305v13.81H166.286z"/>
		<path d="M170.621,272.439c0-1.01,0.137-1.956,0.412-2.839c0.275-0.882,0.681-1.652,1.218-2.311s1.202-1.18,1.995-1.563
			c0.792-0.384,1.707-0.575,2.743-0.575c1.074,0,2.017,0.188,2.829,0.565c0.812,0.378,1.489,0.896,2.033,1.554
			c0.543,0.659,0.952,1.433,1.228,2.321c0.274,0.889,0.412,1.838,0.412,2.848c0,0.997-0.138,1.935-0.412,2.81
			c-0.275,0.876-0.681,1.644-1.218,2.302c-0.537,0.659-1.208,1.18-2.014,1.563s-1.739,0.575-2.8,0.575
			c-1.062,0-1.995-0.191-2.8-0.575s-1.477-0.904-2.014-1.563c-0.537-0.658-0.939-1.426-1.208-2.302
			C170.755,274.374,170.621,273.436,170.621,272.439z M177.065,278.577c0.895,0,1.666-0.169,2.311-0.508s1.176-0.79,1.592-1.353
			c0.415-0.562,0.722-1.215,0.92-1.956c0.198-0.742,0.297-1.516,0.297-2.321c0-0.959-0.118-1.818-0.355-2.579
			s-0.579-1.41-1.026-1.947c-0.448-0.537-0.991-0.946-1.63-1.228c-0.64-0.281-1.355-0.422-2.148-0.422
			c-0.882,0-1.646,0.173-2.292,0.518c-0.646,0.346-1.177,0.803-1.592,1.372c-0.416,0.568-0.723,1.224-0.92,1.966
			c-0.199,0.741-0.297,1.515-0.297,2.32c0,0.818,0.099,1.599,0.297,2.34c0.198,0.742,0.505,1.395,0.92,1.957s0.946,1.01,1.592,1.342
			C175.381,278.411,176.157,278.577,177.065,278.577z"/>
		<path d="M187.384,267.28h-0.039v12.045h-1.304v-13.81h1.477l7.979,12.064h0.039v-12.064h1.304v13.81h-1.515L187.384,267.28z"/>
		<path d="M200.465,275.201c0.051,0.614,0.188,1.136,0.412,1.563c0.224,0.429,0.511,0.776,0.863,1.045
			c0.352,0.269,0.757,0.464,1.218,0.585c0.46,0.122,0.953,0.183,1.477,0.183c0.614,0,1.144-0.077,1.592-0.23
			c0.447-0.153,0.812-0.36,1.093-0.623c0.281-0.262,0.489-0.565,0.624-0.911c0.134-0.345,0.201-0.71,0.201-1.093
			c0-0.537-0.122-0.972-0.364-1.305c-0.243-0.332-0.56-0.604-0.95-0.815s-0.837-0.38-1.342-0.508
			c-0.505-0.128-1.023-0.252-1.554-0.374c-0.531-0.121-1.049-0.266-1.554-0.432c-0.505-0.166-0.953-0.39-1.342-0.671
			c-0.391-0.281-0.707-0.643-0.95-1.084c-0.243-0.441-0.364-1-0.364-1.679c0-0.473,0.099-0.933,0.297-1.381
			c0.198-0.447,0.492-0.844,0.882-1.188c0.39-0.346,0.879-0.62,1.467-0.825c0.588-0.204,1.266-0.307,2.033-0.307
			c0.78,0,1.461,0.108,2.043,0.326c0.582,0.218,1.064,0.515,1.448,0.892c0.384,0.377,0.671,0.815,0.863,1.313
			c0.192,0.499,0.288,1.03,0.288,1.593H207.6c0-0.524-0.093-0.979-0.278-1.362s-0.438-0.696-0.757-0.939
			c-0.32-0.243-0.684-0.422-1.093-0.537c-0.41-0.115-0.832-0.173-1.266-0.173c-0.665,0-1.225,0.093-1.678,0.278
			c-0.454,0.186-0.815,0.425-1.083,0.719c-0.269,0.295-0.454,0.621-0.556,0.979c-0.103,0.358-0.122,0.716-0.058,1.074
			c0.077,0.447,0.255,0.806,0.537,1.074c0.281,0.269,0.626,0.488,1.036,0.661s0.86,0.313,1.352,0.422
			c0.492,0.109,0.994,0.225,1.506,0.346c0.511,0.121,1.007,0.266,1.486,0.432s0.904,0.39,1.275,0.671
			c0.371,0.281,0.668,0.643,0.892,1.084c0.223,0.441,0.335,0.994,0.335,1.659c0,1.278-0.441,2.27-1.323,2.973
			s-2.123,1.055-3.721,1.055c-0.716,0-1.381-0.093-1.995-0.278c-0.614-0.185-1.145-0.466-1.592-0.844
			c-0.448-0.377-0.796-0.844-1.045-1.4c-0.25-0.556-0.374-1.211-0.374-1.966H200.465z"/>
		<path d="M216.979,279.325v-13.81h9.187v1.112h-7.883v4.987h7.116v1.112h-7.116v5.485h8.075v1.112H216.979z"/>
		<path d="M227.45,265.515h10.05v1.112h-4.373v12.697h-1.305v-12.697h-4.373V265.515z"/>
		<path d="M245.153,279.325v-13.81h1.305v13.81H245.153z"/>
		<path d="M251.33,267.28h-0.039v12.045h-1.304v-13.81h1.477l7.979,12.064h0.039v-12.064h1.304v13.81h-1.515L251.33,267.28z"/>
		<path d="M263.739,279.325v-13.81h8.899v1.112h-7.595v4.987h6.905v1.112h-6.905v6.598H263.739z"/>
		<path d="M275.822,273.053v6.271h-1.305v-13.81h5.409c1.521,0,2.685,0.285,3.491,0.854c0.805,0.569,1.208,1.493,1.208,2.771
			c0,0.87-0.176,1.561-0.527,2.071c-0.352,0.512-0.924,0.946-1.717,1.305c0.409,0.141,0.729,0.345,0.959,0.613
			c0.23,0.269,0.403,0.575,0.518,0.921c0.115,0.345,0.188,0.71,0.221,1.093c0.032,0.384,0.054,0.755,0.067,1.113
			c0.013,0.524,0.035,0.959,0.067,1.304c0.032,0.346,0.07,0.627,0.115,0.844c0.045,0.218,0.099,0.387,0.163,0.509
			c0.064,0.121,0.141,0.214,0.23,0.278v0.134h-1.438c-0.141-0.23-0.24-0.55-0.297-0.959s-0.103-0.837-0.134-1.285
			c-0.032-0.447-0.058-0.882-0.077-1.304c-0.02-0.423-0.055-0.768-0.105-1.036c-0.077-0.371-0.202-0.668-0.374-0.892
			c-0.173-0.224-0.381-0.394-0.624-0.509c-0.243-0.115-0.515-0.191-0.815-0.229c-0.301-0.039-0.611-0.058-0.93-0.058H275.822z
			 M279.888,271.941c0.486,0,0.937-0.052,1.352-0.154c0.416-0.102,0.777-0.265,1.084-0.488c0.307-0.224,0.549-0.509,0.729-0.854
			c0.179-0.346,0.269-0.761,0.269-1.247c0-0.512-0.093-0.934-0.278-1.266c-0.186-0.333-0.435-0.595-0.748-0.787
			c-0.313-0.191-0.671-0.325-1.074-0.402s-0.822-0.115-1.256-0.115h-4.143v5.313H279.888z"/>
		<path d="M286.064,279.325l5.428-13.81h1.477l5.294,13.81h-1.343l-1.592-4.335h-6.291l-1.63,4.335H286.064z M289.478,273.877h5.409
			l-2.704-7.25L289.478,273.877z"/>
		<path d="M300.66,275.201c0.051,0.614,0.188,1.136,0.412,1.563c0.224,0.429,0.512,0.776,0.863,1.045s0.758,0.464,1.218,0.585
			c0.46,0.122,0.952,0.183,1.477,0.183c0.614,0,1.145-0.077,1.592-0.23c0.448-0.153,0.812-0.36,1.094-0.623
			c0.281-0.262,0.489-0.565,0.623-0.911c0.135-0.345,0.201-0.71,0.201-1.093c0-0.537-0.121-0.972-0.364-1.305
			c-0.243-0.332-0.56-0.604-0.949-0.815s-0.838-0.38-1.343-0.508s-1.022-0.252-1.554-0.374c-0.53-0.121-1.048-0.266-1.553-0.432
			c-0.506-0.166-0.953-0.39-1.343-0.671c-0.391-0.281-0.707-0.643-0.949-1.084c-0.243-0.441-0.365-1-0.365-1.679
			c0-0.473,0.1-0.933,0.298-1.381c0.198-0.447,0.492-0.844,0.882-1.188c0.391-0.346,0.879-0.62,1.468-0.825
			c0.588-0.204,1.266-0.307,2.033-0.307c0.779,0,1.46,0.108,2.042,0.326s1.064,0.515,1.448,0.892s0.672,0.815,0.863,1.313
			c0.191,0.499,0.288,1.03,0.288,1.593h-1.247c0-0.524-0.093-0.979-0.278-1.362s-0.438-0.696-0.758-0.939
			c-0.319-0.243-0.684-0.422-1.093-0.537s-0.831-0.173-1.266-0.173c-0.665,0-1.225,0.093-1.679,0.278s-0.815,0.425-1.084,0.719
			c-0.269,0.295-0.453,0.621-0.556,0.979c-0.103,0.358-0.122,0.716-0.058,1.074c0.077,0.447,0.256,0.806,0.537,1.074
			s0.626,0.488,1.035,0.661s0.86,0.313,1.353,0.422c0.492,0.109,0.994,0.225,1.506,0.346c0.511,0.121,1.007,0.266,1.486,0.432
			s0.904,0.39,1.275,0.671s0.668,0.643,0.892,1.084s0.336,0.994,0.336,1.659c0,1.278-0.441,2.27-1.323,2.973
			c-0.883,0.703-2.123,1.055-3.721,1.055c-0.717,0-1.381-0.093-1.995-0.278c-0.613-0.185-1.145-0.466-1.592-0.844
			c-0.448-0.377-0.796-0.844-1.045-1.4c-0.25-0.556-0.375-1.211-0.375-1.966H300.66z"/>
		<path d="M310.595,265.515h10.051v1.112h-4.373v12.697h-1.305v-12.697h-4.373V265.515z"/>
		<path d="M323.791,273.053v6.271h-1.305v-13.81h5.409c1.521,0,2.685,0.285,3.49,0.854c0.806,0.569,1.209,1.493,1.209,2.771
			c0,0.87-0.177,1.561-0.527,2.071c-0.353,0.512-0.925,0.946-1.717,1.305c0.409,0.141,0.729,0.345,0.959,0.613
			c0.229,0.269,0.402,0.575,0.518,0.921c0.115,0.345,0.188,0.71,0.221,1.093c0.031,0.384,0.054,0.755,0.067,1.113
			c0.013,0.524,0.035,0.959,0.066,1.304c0.032,0.346,0.07,0.627,0.115,0.844c0.045,0.218,0.099,0.387,0.163,0.509
			c0.064,0.121,0.141,0.214,0.23,0.278v0.134h-1.438c-0.141-0.23-0.24-0.55-0.298-0.959s-0.103-0.837-0.134-1.285
			c-0.032-0.447-0.058-0.882-0.077-1.304c-0.019-0.423-0.055-0.768-0.105-1.036c-0.076-0.371-0.201-0.668-0.374-0.892
			c-0.172-0.224-0.38-0.394-0.623-0.509s-0.515-0.191-0.815-0.229c-0.3-0.039-0.61-0.058-0.93-0.058H323.791z M327.856,271.941
			c0.486,0,0.937-0.052,1.353-0.154c0.415-0.102,0.777-0.265,1.084-0.488s0.55-0.509,0.729-0.854
			c0.179-0.346,0.269-0.761,0.269-1.247c0-0.512-0.093-0.934-0.278-1.266c-0.186-0.333-0.435-0.595-0.748-0.787
			c-0.313-0.191-0.671-0.325-1.074-0.402c-0.402-0.077-0.821-0.115-1.256-0.115h-4.143v5.313H327.856z"/>
		<path d="M335.317,265.515h1.305v8.229c0,1.713,0.319,2.947,0.959,3.701c0.64,0.755,1.669,1.132,3.088,1.132
			c0.741,0,1.371-0.099,1.89-0.297c0.518-0.198,0.937-0.499,1.256-0.901c0.319-0.403,0.55-0.905,0.69-1.506
			c0.141-0.602,0.211-1.311,0.211-2.129v-8.229h1.305v8.611c0,1.804-0.444,3.182-1.333,4.134c-0.889,0.953-2.229,1.429-4.019,1.429
			c-1.803,0-3.146-0.485-4.027-1.457c-0.883-0.972-1.324-2.341-1.324-4.105V265.515z"/>
		<path d="M358.947,269.524c-0.269-1.177-0.768-2.014-1.496-2.513s-1.682-0.748-2.857-0.748c-0.832,0-1.548,0.166-2.148,0.499
			c-0.602,0.332-1.097,0.779-1.486,1.342c-0.391,0.563-0.678,1.212-0.863,1.947s-0.278,1.512-0.278,2.33
			c0,0.768,0.08,1.522,0.24,2.264c0.159,0.741,0.425,1.403,0.796,1.985c0.37,0.582,0.869,1.052,1.496,1.409
			c0.626,0.358,1.412,0.537,2.359,0.537c0.588,0,1.125-0.096,1.61-0.288c0.486-0.191,0.911-0.457,1.275-0.796
			c0.365-0.338,0.672-0.738,0.921-1.198c0.249-0.461,0.438-0.966,0.565-1.516h1.362c-0.153,0.665-0.377,1.295-0.671,1.89
			c-0.295,0.595-0.682,1.115-1.161,1.563c-0.479,0.447-1.062,0.802-1.745,1.064c-0.685,0.262-1.486,0.393-2.407,0.393
			c-1.062,0-1.969-0.195-2.724-0.585c-0.754-0.39-1.371-0.917-1.851-1.582s-0.828-1.436-1.045-2.312
			c-0.218-0.876-0.326-1.806-0.326-2.79c0-1.317,0.163-2.437,0.489-3.357c0.325-0.92,0.776-1.671,1.352-2.253
			s1.253-1.004,2.033-1.267c0.78-0.262,1.63-0.393,2.551-0.393c0.703,0,1.358,0.093,1.966,0.278s1.145,0.463,1.611,0.834
			s0.851,0.828,1.151,1.371c0.3,0.544,0.508,1.174,0.623,1.89H358.947z"/>
		<path d="M361.747,265.515h10.051v1.112h-4.373v12.697h-1.305v-12.697h-4.373V265.515z"/>
		<path d="M373.677,265.515h1.305v8.229c0,1.713,0.319,2.947,0.959,3.701c0.64,0.755,1.669,1.132,3.088,1.132
			c0.741,0,1.371-0.099,1.89-0.297c0.518-0.198,0.937-0.499,1.256-0.901c0.319-0.403,0.55-0.905,0.69-1.506
			c0.141-0.602,0.211-1.311,0.211-2.129v-8.229h1.305v8.611c0,1.804-0.444,3.182-1.333,4.134c-0.889,0.953-2.229,1.429-4.019,1.429
			c-1.803,0-3.146-0.485-4.027-1.457c-0.883-0.972-1.324-2.341-1.324-4.105V265.515z"/>
		<path d="M388.791,273.053v6.271h-1.305v-13.81h5.409c1.521,0,2.685,0.285,3.49,0.854c0.806,0.569,1.209,1.493,1.209,2.771
			c0,0.87-0.177,1.561-0.527,2.071c-0.353,0.512-0.925,0.946-1.717,1.305c0.409,0.141,0.729,0.345,0.959,0.613
			c0.229,0.269,0.402,0.575,0.518,0.921c0.115,0.345,0.188,0.71,0.221,1.093c0.031,0.384,0.054,0.755,0.067,1.113
			c0.013,0.524,0.035,0.959,0.066,1.304c0.032,0.346,0.07,0.627,0.115,0.844c0.045,0.218,0.099,0.387,0.163,0.509
			c0.064,0.121,0.141,0.214,0.23,0.278v0.134h-1.438c-0.141-0.23-0.24-0.55-0.298-0.959s-0.103-0.837-0.134-1.285
			c-0.032-0.447-0.058-0.882-0.077-1.304c-0.019-0.423-0.055-0.768-0.105-1.036c-0.076-0.371-0.201-0.668-0.374-0.892
			c-0.172-0.224-0.38-0.394-0.623-0.509s-0.515-0.191-0.815-0.229c-0.3-0.039-0.61-0.058-0.93-0.058H388.791z M392.856,271.941
			c0.486,0,0.937-0.052,1.353-0.154c0.415-0.102,0.777-0.265,1.084-0.488s0.55-0.509,0.729-0.854
			c0.179-0.346,0.269-0.761,0.269-1.247c0-0.512-0.093-0.934-0.278-1.266c-0.186-0.333-0.435-0.595-0.748-0.787
			c-0.313-0.191-0.671-0.325-1.074-0.402c-0.402-0.077-0.821-0.115-1.256-0.115h-4.143v5.313H392.856z"/>
		<path d="M400.299,279.325v-13.81h9.188v1.112h-7.884v4.987h7.116v1.112h-7.116v5.485h8.075v1.112H400.299z"/>
		<path d="M412.555,275.201c0.051,0.614,0.188,1.136,0.412,1.563c0.224,0.429,0.512,0.776,0.863,1.045s0.758,0.464,1.218,0.585
			c0.46,0.122,0.952,0.183,1.477,0.183c0.614,0,1.145-0.077,1.592-0.23c0.448-0.153,0.812-0.36,1.094-0.623
			c0.281-0.262,0.489-0.565,0.623-0.911c0.135-0.345,0.201-0.71,0.201-1.093c0-0.537-0.121-0.972-0.364-1.305
			c-0.243-0.332-0.56-0.604-0.949-0.815s-0.838-0.38-1.343-0.508s-1.022-0.252-1.554-0.374c-0.53-0.121-1.048-0.266-1.553-0.432
			c-0.506-0.166-0.953-0.39-1.343-0.671c-0.391-0.281-0.707-0.643-0.949-1.084c-0.243-0.441-0.365-1-0.365-1.679
			c0-0.473,0.1-0.933,0.298-1.381c0.198-0.447,0.492-0.844,0.882-1.188c0.391-0.346,0.879-0.62,1.468-0.825
			c0.588-0.204,1.266-0.307,2.033-0.307c0.779,0,1.46,0.108,2.042,0.326s1.064,0.515,1.448,0.892s0.672,0.815,0.863,1.313
			c0.191,0.499,0.288,1.03,0.288,1.593h-1.247c0-0.524-0.093-0.979-0.278-1.362s-0.438-0.696-0.758-0.939
			c-0.319-0.243-0.684-0.422-1.093-0.537s-0.831-0.173-1.266-0.173c-0.665,0-1.225,0.093-1.679,0.278s-0.815,0.425-1.084,0.719
			c-0.269,0.295-0.453,0.621-0.556,0.979c-0.103,0.358-0.122,0.716-0.058,1.074c0.077,0.447,0.256,0.806,0.537,1.074
			s0.626,0.488,1.035,0.661s0.86,0.313,1.353,0.422c0.492,0.109,0.994,0.225,1.506,0.346c0.511,0.121,1.007,0.266,1.486,0.432
			s0.904,0.39,1.275,0.671s0.668,0.643,0.892,1.084s0.336,0.994,0.336,1.659c0,1.278-0.441,2.27-1.323,2.973
			c-0.883,0.703-2.123,1.055-3.721,1.055c-0.717,0-1.381-0.093-1.995-0.278c-0.613-0.185-1.145-0.466-1.592-0.844
			c-0.448-0.377-0.796-0.844-1.045-1.4c-0.25-0.556-0.374-1.211-0.374-1.966H412.555z"/>
		<path fill="#009FE3" d="M438.869,269.524c-0.269-1.177-0.768-2.014-1.496-2.513s-1.682-0.748-2.857-0.748
			c-0.832,0-1.548,0.166-2.148,0.499c-0.602,0.332-1.097,0.779-1.486,1.342c-0.391,0.563-0.678,1.212-0.863,1.947
			s-0.278,1.512-0.278,2.33c0,0.768,0.08,1.522,0.24,2.264c0.159,0.741,0.425,1.403,0.796,1.985c0.37,0.582,0.869,1.052,1.496,1.409
			c0.626,0.358,1.412,0.537,2.359,0.537c0.588,0,1.125-0.096,1.61-0.288c0.486-0.191,0.911-0.457,1.275-0.796
			c0.365-0.338,0.672-0.738,0.921-1.198c0.249-0.461,0.438-0.966,0.565-1.516h1.362c-0.153,0.665-0.377,1.295-0.671,1.89
			c-0.295,0.595-0.682,1.115-1.161,1.563c-0.479,0.447-1.062,0.802-1.745,1.064c-0.685,0.262-1.486,0.393-2.407,0.393
			c-1.062,0-1.969-0.195-2.724-0.585c-0.754-0.39-1.371-0.917-1.851-1.582s-0.828-1.436-1.045-2.312
			c-0.218-0.876-0.326-1.806-0.326-2.79c0-1.317,0.163-2.437,0.489-3.357c0.325-0.92,0.776-1.671,1.352-2.253
			s1.253-1.004,2.033-1.267c0.78-0.262,1.63-0.393,2.551-0.393c0.703,0,1.358,0.093,1.966,0.278s1.145,0.463,1.611,0.834
			s0.851,0.828,1.151,1.371c0.3,0.544,0.508,1.174,0.623,1.89H438.869z"/>
		<path fill="#009FE3" d="M442.916,279.325v-13.81h1.304v12.697h7.404v1.112H442.916z"/>
		<path fill="#009FE3" d="M453.043,272.439c0-1.01,0.137-1.956,0.412-2.839c0.275-0.882,0.681-1.652,1.218-2.311
			s1.202-1.18,1.995-1.563s1.707-0.575,2.742-0.575c1.074,0,2.018,0.188,2.829,0.565c0.812,0.378,1.49,0.896,2.033,1.554
			c0.544,0.659,0.953,1.433,1.228,2.321c0.275,0.889,0.413,1.838,0.413,2.848c0,0.997-0.138,1.935-0.413,2.81
			c-0.274,0.876-0.681,1.644-1.218,2.302c-0.537,0.659-1.208,1.18-2.014,1.563s-1.739,0.575-2.801,0.575s-1.994-0.191-2.8-0.575
			s-1.477-0.904-2.014-1.563c-0.537-0.658-0.94-1.426-1.209-2.302C453.177,274.374,453.043,273.436,453.043,272.439z
			 M459.487,278.577c0.895,0,1.665-0.169,2.312-0.508c0.646-0.339,1.176-0.79,1.592-1.353c0.415-0.562,0.722-1.215,0.921-1.956
			c0.197-0.742,0.297-1.516,0.297-2.321c0-0.959-0.118-1.818-0.354-2.579c-0.237-0.761-0.579-1.41-1.026-1.947
			c-0.448-0.537-0.991-0.946-1.631-1.228c-0.639-0.281-1.355-0.422-2.147-0.422c-0.883,0-1.646,0.173-2.292,0.518
			c-0.646,0.346-1.177,0.803-1.592,1.372c-0.416,0.568-0.723,1.224-0.921,1.966c-0.198,0.741-0.298,1.515-0.298,2.32
			c0,0.818,0.1,1.599,0.298,2.34c0.198,0.742,0.505,1.395,0.921,1.957c0.415,0.562,0.945,1.01,1.592,1.342
			C457.803,278.411,458.579,278.577,459.487,278.577z"/>
		<path fill="#009FE3" d="M468.521,265.515h1.305v8.229c0,1.713,0.319,2.947,0.959,3.701c0.64,0.755,1.669,1.132,3.088,1.132
			c0.741,0,1.371-0.099,1.89-0.297c0.518-0.198,0.937-0.499,1.256-0.901c0.319-0.403,0.55-0.905,0.69-1.506
			c0.141-0.602,0.211-1.311,0.211-2.129v-8.229h1.305v8.611c0,1.804-0.444,3.182-1.333,4.134c-0.889,0.953-2.229,1.429-4.019,1.429
			c-1.803,0-3.146-0.485-4.027-1.457c-0.883-0.972-1.324-2.341-1.324-4.105V265.515z"/>
		<path fill="#009FE3" d="M482.35,279.325v-13.81h4.718c0.384,0,0.761,0.01,1.132,0.028c0.371,0.02,0.735,0.064,1.094,0.135
			c0.357,0.07,0.706,0.176,1.045,0.316s0.668,0.326,0.987,0.557c0.461,0.332,0.838,0.738,1.132,1.218s0.527,0.984,0.7,1.515
			c0.173,0.531,0.294,1.068,0.364,1.611c0.07,0.544,0.105,1.046,0.105,1.506s-0.028,0.927-0.086,1.4
			c-0.058,0.473-0.15,0.937-0.278,1.391c-0.128,0.453-0.297,0.889-0.508,1.304c-0.211,0.416-0.477,0.796-0.796,1.142
			c-0.32,0.357-0.669,0.646-1.046,0.862c-0.377,0.218-0.773,0.388-1.188,0.509c-0.416,0.122-0.848,0.205-1.295,0.249
			c-0.448,0.045-0.901,0.067-1.362,0.067H482.35z M483.653,278.212h3.127c0.588,0,1.141-0.035,1.659-0.105
			c0.518-0.07,1.045-0.246,1.582-0.527c0.46-0.23,0.837-0.544,1.132-0.94c0.294-0.396,0.527-0.827,0.7-1.294
			c0.172-0.467,0.294-0.956,0.364-1.468c0.07-0.511,0.105-1.004,0.105-1.477c0-0.499-0.032-1.007-0.096-1.525
			c-0.064-0.518-0.186-1.01-0.365-1.477c-0.179-0.467-0.422-0.895-0.729-1.285c-0.307-0.39-0.703-0.712-1.189-0.969
			c-0.409-0.217-0.895-0.357-1.457-0.422c-0.563-0.063-1.132-0.096-1.707-0.096h-3.127V278.212z"/>
	</g>
</g>
<g>
	<path fill="#FFFFFF" d="M417.668,192.574c8.339,15.127,22.061,10.229,23.352,9.728c8.653-5.711,12.274-12.201,12.274-12.201
		c-16.153,12.404-12.345-33.155-49.623-72.83c-26.447-28.147-65.822-24.882-65.822-24.882l-0.072,0.055
		c-35.566,1.825-59.224,23.827-59.224,23.827C364.742,53.567,408.635,176.187,417.668,192.574z"/>
	<path display="none" opacity="0.17" fill="#FFFFFF" d="M453.295,190.1c0,0-2.428,6.402-8.441,11.918
		c-0.905,0.473-10.528,5.069-16.765-10.213c-6.757-16.554-38.019-141.056-100.269-79.169
		c65.353-24.519,67.449,88.412,100.032,97.165C445.318,213.533,453.295,190.1,453.295,190.1z"/>
</g>
</svg>
